<?xml version="1.0" encoding="UTF-8"?>
<svg xmlns="http://www.w3.org/2000/svg" xmlns:xlink="http://www.w3.org/1999/xlink" width="25px" height="25px" viewBox="0 0 25 25" version="1.1">
<g id="surface1">
<path style=" stroke:none;fill-rule:nonzero;fill:rgb(0%,44.313725%,73.72549%);fill-opacity:1;" d="M 18.945312 0.523438 C 19.105469 0.558594 19.242188 0.671875 19.230469 0.894531 C 19.175781 2.003906 19.117188 3.113281 18.839844 4.191406 C 18.875 4.492188 18.6875 4.847656 18.339844 4.800781 C 15.863281 4.472656 14.964844 6.703125 14.640625 9.214844 C 15.820312 9.285156 16.988281 9.375 18.125 9.476562 C 18.335938 9.496094 18.453125 9.644531 18.476562 9.804688 C 18.539062 9.84375 18.59375 9.90625 18.617188 9.996094 C 18.820312 10.648438 18.824219 11.382812 18.839844 12.070312 C 18.847656 12.609375 18.914062 13.214844 18.550781 13.644531 C 18.597656 13.894531 18.460938 14.1875 18.125 14.199219 C 16.917969 14.214844 15.695312 14.234375 14.464844 14.242188 C 14.464844 14.363281 14.464844 14.484375 14.460938 14.597656 C 14.375 17.882812 14.515625 21.160156 14.480469 24.441406 C 14.476562 24.699219 14.269531 24.792969 14.082031 24.757812 C 14.058594 24.773438 14.03125 24.792969 14.003906 24.804688 C 13.382812 25 12.683594 24.96875 12.039062 24.988281 C 11.398438 25.003906 10.769531 25.019531 10.136719 24.910156 C 9.980469 24.960938 9.789062 24.910156 9.753906 24.703125 C 9.1875 21.453125 9.28125 18.019531 9.296875 14.726562 C 9.296875 14.519531 9.296875 14.3125 9.296875 14.109375 C 8.292969 14.042969 7.296875 13.941406 6.316406 13.800781 C 6.164062 13.773438 6.089844 13.675781 6.078125 13.558594 C 5.71875 13.316406 5.804688 12.683594 5.796875 12.285156 C 5.78125 11.429688 5.6875 10.4375 5.933594 9.613281 C 5.960938 9.527344 6.019531 9.472656 6.09375 9.433594 C 6.140625 9.382812 6.207031 9.347656 6.296875 9.335938 C 7.296875 9.214844 8.328125 9.144531 9.371094 9.109375 C 9.421875 8.164062 9.507812 7.21875 9.652344 6.289062 C 10.34375 1.871094 14.132812 -0.8125 18.609375 0.21875 C 18.792969 0.265625 18.898438 0.386719 18.945312 0.523438 Z M 18.945312 0.523438 "/>
</g>
</svg>
